<svg xmlns="http://www.w3.org/2000/svg" style="width:0; height:0; visibility:hidden;">
    <symbol id="icon_arrow" viewBox="0 0 35 24">
        <path id="arrow" class="cls-1" d="M186.5,777L169,753H204Z" transform="translate(-169 -753)"/> 
    </symbol>
    <symbol id="icon_facebook" viewBox="-158 164.9 278 512">
       <g id="_x23_000000ff"> <path d="M40.6,164.9h67.8c3.1,0.4,6.5,1.4,8.5,4c2.2,2.5,2.5,5.9,2.5,9.1c0,24.7,0,49.3,0,74c0,3.3-0.7,6.8-3.3,9.1
		c-2.6,2.7-6.5,3.1-10.1,3.1c-13,0-26.1,0-39.1,0c-8.2,0.2-16.7,0.3-24.4,3.5c-4.9,2-9.2,5.8-11.4,10.7c-3.4,7.4-3.4,15.7-3.5,23.7
		c0,15.7,0,31.4,0,47.1c25.4,0,50.9,0,76.3,0c3.6-0.1,7.4,1,9.7,3.9c2.2,2.4,2.4,5.9,2.5,9c0,26.7,0,53.4,0,80.1
		c0,3.5-0.9,7.2-3.7,9.5c-2.6,2.4-6.3,2.7-9.6,2.7c-25.1,0-50.1,0-75.2,0c0,70.6,0.1,141.2,0,211.8c0.2,5.8-4.6,10.8-10.4,11h-87.1
		c-3-0.3-6.2-1.5-8-4c-2.8-3.3-2.3-8-2.4-12c0-68.9,0-137.9,0-206.8c-21.6,0-43.2,0-64.8,0c-3.3,0-6.8-0.6-9.2-3.1
		c-2.6-2.3-3.2-5.8-3.2-9.1c0-26.7,0-53.3,0-80c0-3.1,0.3-6.6,2.5-9.1c2.3-2.9,6.2-3.9,9.8-3.8c21.6,0,43.3,0,64.9,0c0-19,0-38,0-57
		c0.1-16.2,2-32.6,7.1-48.1c6.1-19.3,17.3-37.2,32.6-50.5C-18.4,173.9,11.5,165.3,40.6,164.9z"/> </g> 
    </symbol>
    <symbol id="icon_linkedin" viewBox="-66 199.9 462 442">
       <g id="_x23_000000ff"> <path d="M-20.5,201.6c16-2.4,33.5,0.2,46.6,10.2c20.8,15.5,25.7,48,10.9,69.2c-7.7,11.4-20.4,18.7-33.8,21.2
		c-15,2.7-31.4,1.3-44.7-6.8c-10.9-6.4-19.1-17.3-22.2-29.6c-4-15.2-1.2-32.4,8.6-44.9C-46.7,210.1-33.8,203.6-20.5,201.6z"/> <path d="M263.9,338.2c20.1-2.6,41-1,60.2,5.8c20.7,7.3,38.7,21.9,50.2,40.6c13.5,21.2,19,46.5,20.7,71.3c0.9,20,0.4,40,0.5,59.9
		c0,41.7,0,83.5,0,125.2c-32.9,0-65.9,0-98.8,0c0-50.7,0-101.4,0-152.1c0-14-0.4-28.3-5.1-41.7c-3.6-12.3-12.3-23.5-24.3-28.5
		c-11.8-4.8-25.4-4.9-37.5-1.1c-15.4,5-27.3,17.8-33.4,32.6c-3.5,8.1-3.3,17.1-3.7,25.7c-0.1,55,0.1,110.1-0.1,165.1
		c-32.9-0.1-65.8,0-98.7,0c0.2-99,1.1-198.1,0-297.1c32.9,0,65.9,0,98.8,0c-0.1,14.3,0.1,28.6-0.1,42.9c6-10.6,14.2-20.1,23.5-27.9
		C229.4,347.4,246.4,340.6,263.9,338.2z"/> <path d="M-59.5,344c32.9,0,65.8,0,98.7,0c0,99,0,198,0,297.1c-32.9,0-65.8,0-98.7,0C-59.5,542-59.5,443-59.5,344z"/> </g> 
    </symbol>
    <symbol id="icon_pinterest" viewBox="-101 164.9 392 512">
       <g id="_x23_000000ff"> <path d="M108.3,164.9h2.3c14.3,0.8,28.7,2.2,42.5,6c27.7,6.9,53.4,21.2,74.1,40.8c21.6,21.1,37.9,47.3,48.5,75.4
		c16.4,43.7,19.7,93,5.3,137.7c-9.5,27.9-25.7,54.6-50.1,71.9c-4.9,3.4-9,7.9-13.9,11.2c-15.9,11.1-34.1,18.9-53,22.8
		c-20.4,4.5-42.3,3.1-61.6-5.3c-13.8-5.1-26.5-12.7-38.4-21.3c-1.8,14.8-6.8,28.9-9.5,43.5c-3.4,19.1-6.4,38.5-14.3,56.4
		c-10.4,24.4-26.8,45.5-42.4,66.6c-1.5,2-2.9,4.1-5,5.6c-1.8,0.5-4,0.7-5.6-0.5c-5.7-11.1-11-22.7-13.2-35.1
		c-3.2-19.9-1.1-40.1,1.7-59.9c2.7-18.1,6.5-36,9.8-54c9-43.3,20.9-86.2,37.1-127.4c-6.6-4.7-9.6-12.8-10-20.7
		c-0.8-15.3,2.6-30.5,7.8-44.8c4.3-12.1,12.5-22.3,22.1-30.6c9.4-7.7,20.9-14.4,33.5-13.7c9.2,0.4,17.2,6.5,21.9,14.2
		c8.7,13.4,9.4,30.4,6.9,45.8c-2.8,19.5-9.5,38.2-14.6,57.1c-2.7,11.1-5.6,22.5-4.6,34c0.6,8.5,3.5,16.8,8.7,23.6
		c6.3,8.4,16.3,13.5,26.6,14.5c14.6,1.6,29-3.5,41.6-10.4c18.4-10.3,32.1-27.4,40.5-46.6c9.7-21.7,13.1-45.6,14.3-69.1
		c0.5-14.6,0.4-29.2-1-43.7c-2.2-21.4-7.1-43.2-19-61.4c-11.1-17.3-29.2-29.8-49.2-34.3c-18.3-4.2-37.4-2.5-55.4,2.4
		c-21.8,6-42.3,16.2-61,28.9c-18.6,12.7-35.2,28.5-48.5,46.7c-14.8,20.2-25.8,44.2-26,69.6c-0.5,21.7,8.6,43,23.1,58.8
		c2.3,2,6.6,2.5,6.8,6.2c0,9.5-3.8,18.4-6.9,27.3c-1.1,2.9-2.2,6.3-5,8c-2.4,1.6-5.5,1.3-8.2,0.7c-16.1-3.6-31.5-12.1-41.8-25.2
		c-9-11.5-15.8-24.8-20.1-38.8c-7-24-6.7-49.7-1.1-73.9c7.6-32.4,23.5-62.7,45.1-87.9c21.4-25.4,49.8-44.4,80.7-56.4
		C54.8,169.8,81.6,165,108.3,164.9 M-74,311c3.3-8.8,7.9-17,12.1-25.3c-0.6,0-1.7,0-2.2,0C-68.2,293.8-71.8,302.1-74,311
		 M-32.1,431.9c0.8,1.6,1.9,3,3.2,4.3C-28.4,433.9-30.1,432.3-32.1,431.9z"/> </g> 
    </symbol>
    <symbol id="icon_play" viewBox="0 0 26 26">
        <path id="Arrow" class="cls-1" d="M79.007,47.5L53.992,60V35Z" transform="translate(-53.5 -34.5)"/> 
    </symbol>
    <symbol id="icon_twitter" viewBox="-41 212.9 512 416">
       <g id="_x23_000000ff"> <path d="M310.6,212.9h4.9c28,0.6,55.5,12.7,74.5,33.2c23.5-4.6,46.1-13.3,66.8-25.5c-7.7,24.1-24.5,45.1-46.2,58.1
		c20.8-2.5,41.1-8.1,60.3-16.5c-14,20.9-31.8,39.4-52.3,54c-0.3,3.9,0.1,7.8,0.1,11.8c0.4,56.4-16.2,112.4-45.3,160.5
		c-26.9,44.4-65.5,82-111.5,106.3c-42.1,22.6-89.9,33.4-137.4,34.1h-7.9c-55.5-0.7-110.8-17.1-157.5-47.3c18.9,2.1,38.2,1.9,57-1
		c35.7-5.4,69.9-20.1,98.2-42.5c-16.7-0.5-33.3-4.7-48-12.7c-23.6-12.7-41.8-34.7-50-60.2c15.6,3,31.9,2.4,47.3-1.8
		c-28.6-5.7-54.3-23.9-69.1-49c-10.2-16.5-15-36-15.1-55.3c14.7,8,31.1,12.6,47.8,13.3c-23.4-15.6-40.2-40.9-45.1-68.6
		c-4.5-24.4,0-50.3,12.5-71.7c28,34.3,63.6,62.4,103.7,81.3c35.2,16.9,73.8,26.3,112.7,28.4c-2.6-11.8-3.4-24-2-36
		c2.7-23.7,13.8-46.4,31-62.9C258.6,224.4,284.5,213.7,310.6,212.9z"/> </g> 
    </symbol></svg>