<?xml version="1.0" encoding="utf-8"?>
<!-- Generator: Adobe Illustrator 18.1.1, SVG Export Plug-In . SVG Version: 6.00 Build 0)  -->
<svg version="1.1" id="Layer_1" xmlns="http://www.w3.org/2000/svg" xmlns:xlink="http://www.w3.org/1999/xlink" x="0px" y="0px"
	 viewBox="-158 164.9 278 512" enable-background="new -158 164.9 278 512" xml:space="preserve">
<g id="_x23_000000ff">
	<path d="M40.6,164.9h67.8c3.1,0.4,6.5,1.4,8.5,4c2.2,2.5,2.5,5.9,2.5,9.1c0,24.7,0,49.3,0,74c0,3.3-0.7,6.8-3.3,9.1
		c-2.6,2.7-6.5,3.1-10.1,3.1c-13,0-26.1,0-39.1,0c-8.2,0.2-16.7,0.3-24.4,3.5c-4.9,2-9.2,5.8-11.4,10.7c-3.4,7.4-3.4,15.7-3.5,23.7
		c0,15.7,0,31.4,0,47.1c25.4,0,50.9,0,76.3,0c3.6-0.1,7.4,1,9.7,3.9c2.2,2.4,2.4,5.9,2.5,9c0,26.7,0,53.4,0,80.1
		c0,3.5-0.9,7.2-3.7,9.5c-2.6,2.4-6.3,2.7-9.6,2.7c-25.1,0-50.1,0-75.2,0c0,70.6,0.1,141.2,0,211.8c0.2,5.8-4.6,10.8-10.4,11h-87.1
		c-3-0.3-6.2-1.5-8-4c-2.8-3.3-2.3-8-2.4-12c0-68.9,0-137.9,0-206.8c-21.6,0-43.2,0-64.8,0c-3.3,0-6.8-0.6-9.2-3.1
		c-2.6-2.3-3.2-5.8-3.2-9.1c0-26.7,0-53.3,0-80c0-3.1,0.3-6.6,2.5-9.1c2.3-2.9,6.2-3.9,9.8-3.8c21.6,0,43.3,0,64.9,0c0-19,0-38,0-57
		c0.1-16.2,2-32.6,7.1-48.1c6.1-19.3,17.3-37.2,32.6-50.5C-18.4,173.9,11.5,165.3,40.6,164.9z"/>
</g>
</svg>
