<?xml version="1.0" encoding="utf-8"?>
<!-- Generator: Adobe Illustrator 18.1.1, SVG Export Plug-In . SVG Version: 6.00 Build 0)  -->
<svg version="1.1" id="Layer_1" xmlns="http://www.w3.org/2000/svg" xmlns:xlink="http://www.w3.org/1999/xlink" x="0px" y="0px"
	 viewBox="-66 199.9 462 442" enable-background="new -66 199.9 462 442" xml:space="preserve">
<g id="_x23_000000ff">
	<path d="M-20.5,201.6c16-2.4,33.5,0.2,46.6,10.2c20.8,15.5,25.7,48,10.9,69.2c-7.7,11.4-20.4,18.7-33.8,21.2
		c-15,2.7-31.4,1.3-44.7-6.8c-10.9-6.4-19.1-17.3-22.2-29.6c-4-15.2-1.2-32.4,8.6-44.9C-46.7,210.1-33.8,203.6-20.5,201.6z"/>
	<path d="M263.9,338.2c20.1-2.6,41-1,60.2,5.8c20.7,7.3,38.7,21.9,50.2,40.6c13.5,21.2,19,46.5,20.7,71.3c0.9,20,0.4,40,0.5,59.9
		c0,41.7,0,83.5,0,125.2c-32.9,0-65.9,0-98.8,0c0-50.7,0-101.4,0-152.1c0-14-0.4-28.3-5.1-41.7c-3.6-12.3-12.3-23.5-24.3-28.5
		c-11.8-4.8-25.4-4.9-37.5-1.1c-15.4,5-27.3,17.8-33.4,32.6c-3.5,8.1-3.3,17.1-3.7,25.7c-0.1,55,0.1,110.1-0.1,165.1
		c-32.9-0.1-65.8,0-98.7,0c0.2-99,1.1-198.1,0-297.1c32.9,0,65.9,0,98.8,0c-0.1,14.3,0.1,28.6-0.1,42.9c6-10.6,14.2-20.1,23.5-27.9
		C229.4,347.4,246.4,340.6,263.9,338.2z"/>
	<path d="M-59.5,344c32.9,0,65.8,0,98.7,0c0,99,0,198,0,297.1c-32.9,0-65.8,0-98.7,0C-59.5,542-59.5,443-59.5,344z"/>
</g>
</svg>
