<?xml version="1.0" encoding="utf-8"?>
<!-- Generator: Adobe Illustrator 18.1.1, SVG Export Plug-In . SVG Version: 6.00 Build 0)  -->
<svg version="1.1" id="Layer_1" xmlns="http://www.w3.org/2000/svg" xmlns:xlink="http://www.w3.org/1999/xlink" x="0px" y="0px"
	 viewBox="-101 164.9 392 512" enable-background="new -101 164.9 392 512" xml:space="preserve">
<g id="_x23_000000ff">
	<path d="M108.3,164.9h2.3c14.3,0.8,28.7,2.2,42.5,6c27.7,6.9,53.4,21.2,74.1,40.8c21.6,21.1,37.9,47.3,48.5,75.4
		c16.4,43.7,19.7,93,5.3,137.7c-9.5,27.9-25.7,54.6-50.1,71.9c-4.9,3.4-9,7.9-13.9,11.2c-15.9,11.1-34.1,18.9-53,22.8
		c-20.4,4.5-42.3,3.1-61.6-5.3c-13.8-5.1-26.5-12.7-38.4-21.3c-1.8,14.8-6.8,28.9-9.5,43.5c-3.4,19.1-6.4,38.5-14.3,56.4
		c-10.4,24.4-26.8,45.5-42.4,66.6c-1.5,2-2.9,4.1-5,5.6c-1.8,0.5-4,0.7-5.6-0.5c-5.7-11.1-11-22.7-13.2-35.1
		c-3.2-19.9-1.1-40.1,1.7-59.9c2.7-18.1,6.5-36,9.8-54c9-43.3,20.9-86.2,37.1-127.4c-6.6-4.7-9.6-12.8-10-20.7
		c-0.8-15.3,2.6-30.5,7.8-44.8c4.3-12.1,12.5-22.3,22.1-30.6c9.4-7.7,20.9-14.4,33.5-13.7c9.2,0.4,17.2,6.5,21.9,14.2
		c8.7,13.4,9.4,30.4,6.9,45.8c-2.8,19.5-9.5,38.2-14.6,57.1c-2.7,11.1-5.6,22.5-4.6,34c0.6,8.5,3.5,16.8,8.7,23.6
		c6.3,8.4,16.3,13.5,26.6,14.5c14.6,1.6,29-3.5,41.6-10.4c18.4-10.3,32.1-27.4,40.5-46.6c9.7-21.7,13.1-45.6,14.3-69.1
		c0.5-14.6,0.4-29.2-1-43.7c-2.2-21.4-7.1-43.2-19-61.4c-11.1-17.3-29.2-29.8-49.2-34.3c-18.3-4.2-37.4-2.5-55.4,2.4
		c-21.8,6-42.3,16.2-61,28.9c-18.6,12.7-35.2,28.5-48.5,46.7c-14.8,20.2-25.8,44.2-26,69.6c-0.5,21.7,8.6,43,23.1,58.8
		c2.3,2,6.6,2.5,6.8,6.2c0,9.5-3.8,18.4-6.9,27.3c-1.1,2.9-2.2,6.3-5,8c-2.4,1.6-5.5,1.3-8.2,0.7c-16.1-3.6-31.5-12.1-41.8-25.2
		c-9-11.5-15.8-24.8-20.1-38.8c-7-24-6.7-49.7-1.1-73.9c7.6-32.4,23.5-62.7,45.1-87.9c21.4-25.4,49.8-44.4,80.7-56.4
		C54.8,169.8,81.6,165,108.3,164.9 M-74,311c3.3-8.8,7.9-17,12.1-25.3c-0.6,0-1.7,0-2.2,0C-68.2,293.8-71.8,302.1-74,311
		 M-32.1,431.9c0.8,1.6,1.9,3,3.2,4.3C-28.4,433.9-30.1,432.3-32.1,431.9z"/>
</g>
</svg>
