<?xml version="1.0" encoding="utf-8"?>
<!-- Generator: Adobe Illustrator 18.1.1, SVG Export Plug-In . SVG Version: 6.00 Build 0)  -->
<svg version="1.1" id="Layer_1" xmlns="http://www.w3.org/2000/svg" xmlns:xlink="http://www.w3.org/1999/xlink" x="0px" y="0px"
	 viewBox="-41 212.9 512 416" enable-background="new -41 212.9 512 416" xml:space="preserve">
<g id="_x23_000000ff">
	<path d="M310.6,212.9h4.9c28,0.6,55.5,12.7,74.5,33.2c23.5-4.6,46.1-13.3,66.8-25.5c-7.7,24.1-24.5,45.1-46.2,58.1
		c20.8-2.5,41.1-8.1,60.3-16.5c-14,20.9-31.8,39.4-52.3,54c-0.3,3.9,0.1,7.8,0.1,11.8c0.4,56.4-16.2,112.4-45.3,160.5
		c-26.9,44.4-65.5,82-111.5,106.3c-42.1,22.6-89.9,33.4-137.4,34.1h-7.9c-55.5-0.7-110.8-17.1-157.5-47.3c18.9,2.1,38.2,1.9,57-1
		c35.7-5.4,69.9-20.1,98.2-42.5c-16.7-0.5-33.3-4.7-48-12.7c-23.6-12.7-41.8-34.7-50-60.2c15.6,3,31.9,2.4,47.3-1.8
		c-28.6-5.7-54.3-23.9-69.1-49c-10.2-16.5-15-36-15.1-55.3c14.7,8,31.1,12.6,47.8,13.3c-23.4-15.6-40.2-40.9-45.1-68.6
		c-4.5-24.4,0-50.3,12.5-71.7c28,34.3,63.6,62.4,103.7,81.3c35.2,16.9,73.8,26.3,112.7,28.4c-2.6-11.8-3.4-24-2-36
		c2.7-23.7,13.8-46.4,31-62.9C258.6,224.4,284.5,213.7,310.6,212.9z"/>
</g>
</svg>
